# xmcd
#
# Track frame offsets: 
#        150
#        30237
#        59925
#        92229
#        120779
#        143487
#        170643
#        197486
#
# Disc length: 3658 seconds
#
# Revision: 0
# Processed by: cddbd v1.5.2PL0 Copyright (c) Steve Scherf et al.
# Submitted via: ExactAudioCopy v0.95b4
#
DISCID=640e4808
DTITLE=Eric Clapton - 1986-11-23 - Blood Brother
DYEAR=1986
DGENRE=Blues
TTITLE0=Crossroads
TTITLE1=White Room
TTITLE2=I Shot The Sheriff
TTITLE3=Wanna Make Love To You
TTITLE4=It's In The Way That You Use It
TTITLE5=Run
TTITLE6=Miss You
TTITLE7=Same Old Blues
EXTD=
EXTT0=
EXTT1=
EXTT2=
EXTT3=
EXTT4=
EXTT5=
EXTT6=
EXTT7=
PLAYORDER=
